# xmcd
#
# Track frame offsets:
#	150
#	23167
#	41470
#	59459
#	75054
#	87158
#	106858
#	119279
#	139666
#	155941
#	168917
#	182508
#	197149
#	208412
#	222740
#	239293
#	258587
#	276141
#
# Disc length: 3883 seconds
#
# Revision: 1
# Processed by: cddbd v1.5.2PL0 Copyright (c) Steve Scherf et al.
# Submitted via: audiograbber 1.83.01
#
DISCID=000f2912
DTITLE=Alan Jackson - Norwegian Favorites
DYEAR=2009
DGENRE=Country
TTITLE0=Good Time
TTITLE1=Drive (For Daddy Gene)
TTITLE2=Chattahoochee (Extended Mix)
TTITLE3=USA Today
TTITLE4=Little Bitty
TTITLE5=Gone Country
TTITLE6=It's Alright To Be A Redneck
TTITLE7=Little Man
TTITLE8=Like Red On A Rose
TTITLE9=Don't Rock The Jukebox
TTITLE10=The Talkin' Song Repair Blues
TTITLE11=Summertime Blues
TTITLE12=Tall, Tall Trees
TTITLE13=To Much Of A Good Thing
TTITLE14=Mercury Blues
TTITLE15=A Woman's Love
TTITLE16=It's Five O'Clock Somewhere
TTITLE17=Monday Morning Church
EXTD=
EXTT0=
EXTT1=
EXTT2=
EXTT3=
EXTT4=
EXTT5=
EXTT6=
EXTT7=
EXTT8=
EXTT9=
EXTT10=
EXTT11=
EXTT12=
EXTT13=
EXTT14=
EXTT15=
EXTT16=
EXTT17=
PLAYORDER=
